<svg xmlns="http://www.w3.org/2000/svg" viewBox="0 0 256 47.5"><defs><style>.cls-1{fill:none;}.cls-2{isolation:isolate;}</style></defs><title>资源 2</title><g id="图层_2" data-name="图层 2"><g id="图层_1-2" data-name="图层 1"><rect class="cls-1" width="256" height="47.5"/><g class="cls-2"><path d="M19.8,13.8l-2.9,7.7,5.1.3.2-5.7,4.5.2L26.5,22l3.2.2-.2,4.5-3.2-.1-.2,5.1,4.7-1.6,1.5,4.3-6.4,2.3-.3,8-4.5-.1.2-6.2-8.2,2.8-1.5-4.3,9.8-3.5.3-7-8.3-.5-2-3,3.3-8.5-2.5.1L11.8,10l4.8-.4L19,3.5,23.3,5,21.7,9.2l7.6-.7.4,4.5ZM40.1,29.1,52.5,39.4l-2.9,3.5L38.3,33.5,34,44.3l-4.2-1.7L39.9,17.3,44.1,19Zm9.6-4.5-4.5-.9,1.9-9.3L33.2,16.5l-2.4-3,4.6-9.7,4.1,1.9-2.8,5.8L49.6,9.6l2.5,2.6Z"/><path d="M58.9,18.6l13-13.4,3.3,3.1L67,16.8h2.9L70.4,42H65.9l-.5-23.6-3.2,3.4Zm13.3.8L78.4,4.7l4.2,1.7-2.4,5.7,5.1-.4.2-6.5,4.6.2-.2,6,6.8-.5.3,4.5-7.2.6-.3,9.6,11.3-1.1.4,4.5-12,1.2-.4,13.1-4.6-.1.4-12.5-12,1.1-.4-4.5,12.6-1.2.4-9.7-7,.5-1.8,4.3Z"/><path d="M143.6,44.4,111.8,44l-2.3-2.2L107.8,6.9,110,4.5l35.8-1,2.4,2.4L146,42.1ZM114,39.5l27.6.3,1.9-31.6L112.4,9Zm19.4-15.8.7,6.8,5.9-1.6,1.2,4.3-8.5,2.4-2.9-2-1-9.6-3.6.2-5,13.2-4.3-1.6,4.3-11.2-4.4.3-.4-4.6,23.8-1.7.4,4.5Zm-15.3-6.3-.2-4.5,19-.8.2,4.6Z"/><path d="M155.9,13.7l7.6-.8-.1-6.5,4.6-.1v6.2l3.7-.4.5,4.5-4.2.5.1,5.2,5.7,8.4-3.7,2.6-1.9-2.7.2,13.1h-4.5l-.3-21.3-3.9,20.1-4.5-.8,4.6-23.6-3.5.4Zm35.4,10.7-4.7,5.7,9.3,10.4-3.4,3-8.8-9.9-8,9.6-3.5-2.9,8.5-10.2-3-3.4-1,1.8-4-2.1,6-11.5,4,2-2.8,5.4,3.7,4.2,4.5-5.3L185.8,19l3.1-3.3,7.9,7.5-3.1,3.2ZM173,10.1l8.6-.5L180.4,6l4.2-1.4,1.7,4.8,9.8-.6.2,4.5-23.1,1.3Z"/><path d="M208.7,43.5l-2.4-2.2L205.3,7l2.3-2.4,32.2-.1V9l-29.9.1.8,29.7,31.6-2.7.4,4.5Zm20.3-20,10,7.2-2.6,3.7-10.9-7.8-10.2,8.8L212.4,32l9.4-8.2L212.3,17l2.6-3.6,10.3,7.4,11-9.6,2.9,3.5Z"/></g></g></g></svg>