<svg xmlns="http://www.w3.org/2000/svg" viewBox="0 0 256 47.5"><defs><style>.cls-1{fill:none;}.cls-2{isolation:isolate;}</style></defs><title>兴隆山</title><g id="图层_2" data-name="图层 2"><g id="图层_1-2" data-name="图层 1"><rect class="cls-1" width="256" height="47.5"/><g class="cls-2"><path d="M42.2,18.4l9.6-.6.3,4.5-40,2.6-.3-4.6,24.6-1.5L45.8,5.1l3.7,2.6ZM15.9,43.7l-3.5-2.8,13-15.7,3.5,2.9Zm4.3-25.9L13.8,7.4,17.6,5,24,15.4Zm10.6-1.7L25.2,6.5,29,4.2l5.7,9.5ZM45.9,42.9,34,30.3l3.3-3.1L49.2,39.8Z"/><path d="M60.1,43.9V9.3L62,7.1l7.7-1.2,2.6,2.2L73,34.3l-1.2,2L68,38.4l-2.2-4L68.4,33l-.7-22.2-3.2.5V43.9ZM73.2,20.3l5-2.6-4.7-.9.8-4.4,10.5,1.9,4.1-2.1-12.8-.8L74.2,8.1,76.3,4l4,2-.5,1.1L97.5,8.3l.9,4.2-6.2,3.2L99.8,17,99,21.5,85.6,19l-3,1.5,13.6,1.3-.4,4.5-5.2-.5-.2,1.3,5.3-.5.4,4.5-6.3.6-.3,2,6.2-.2.2,4.5-7,.3-.1,1.2H100V44H72.3V39.5H84.1l.1-1.1-3.5.1L80.5,34l4.3-.1.2-1.7-6.1.6-.7,2.4-4.3-1.3,2.9-9.6,4.3,1.3-.8,2.5,5.4-.5.3-2.2-6.5-.7.2-2.8-4.6,2.4Z"/><path d="M109.8,37.7,108.6,16l4.6-.2,1,19.3,12-1.2L125.4,6l4.6-.1.8,27.6,10.8-1.2,1.2-16.5,4.5.3-1.9,26-4.6-.3.3-4.8-28.9,3Z"/><path d="M155.9,13.7l7.6-.8-.1-6.5,4.6-.1v6.2l3.7-.4.5,4.5-4.2.5.1,5.2,5.7,8.4-3.7,2.6-1.9-2.7.2,13.1h-4.5l-.3-21.3-3.9,20.1-4.5-.8,4.6-23.6-3.5.4Zm35.4,10.7-4.7,5.7,9.3,10.4-3.4,3-8.8-9.9-8,9.6-3.5-2.9,8.5-10.2-3-3.4-1,1.8-4-2.1,6-11.5,4,2-2.8,5.4,3.7,4.2,4.5-5.3L185.8,19l3.1-3.3,7.9,7.5-3.1,3.2ZM173,10.1l8.6-.5L180.4,6l4.2-1.4,1.7,4.8,9.8-.6.2,4.5-23.1,1.3Z"/><path d="M208.7,43.5l-2.4-2.2L205.3,7l2.3-2.4,32.2-.1V9l-29.9.1.8,29.7,31.6-2.7.4,4.5Zm20.3-20,10,7.2-2.6,3.7-10.9-7.8-10.2,8.8L212.4,32l9.4-8.2L212.3,17l2.6-3.6,10.3,7.4,11-9.6,2.9,3.5Z"/></g></g></g></svg>