<svg xmlns="http://www.w3.org/2000/svg" viewBox="0 0 256 47.5"><defs><style>.cls-1{fill:none;}.cls-2{isolation:isolate;}</style></defs><title>资源 1</title><g id="图层_2" data-name="图层 2"><g id="图层_1-2" data-name="图层 1"><rect class="cls-1" width="256" height="47.5"/><g class="cls-2"><path d="M41.1,32.8,36.9,16.2l2.2-2.8,15.5-.2.1-8.5h4.6l-.1,8.4L73,12.9l2.2,2.8L71.5,29.5l-1.9,1.7L58.7,32.5l-.2,10.9H54l.1-10.3L43.4,34.4ZM45,29.7l9.3-1.1.2-10.9L42,17.9ZM59,17.6,58.8,28l8.7-1.1,2.4-9.6Z"/><path d="M83.4,32.1l5.9-15.8,4.2,1.6L87.6,33.6Zm12.4,8.1-2.2-2.5,2.3-19.2,4.5.6L98.5,35.8l17.2.8-.2,4.5ZM98.5,9l4-2.2,7.3,13.7-3.9,2.2Zm13.7,4,4-2.1,8.4,16.6-4,2Z"/><path d="M131.9,13.7l7.6-.8-.1-6.5,4.6-.1v6.2l3.7-.4.5,4.5-4.2.5.1,5.2,5.7,8.4-3.7,2.6-1.9-2.7.2,13.1h-4.5l-.3-21.3-3.9,20.1-4.5-.8,4.6-23.6-3.5.4Zm35.4,10.7-4.7,5.7,9.3,10.4-3.4,3-8.8-9.9-8,9.6-3.5-2.9,8.5-10.2-3-3.4-1,1.8-4-2.1,6-11.5,4,2-2.8,5.4,3.7,4.2,4.5-5.3L161.8,19l3.1-3.3,7.9,7.5-3.1,3.2ZM149,10.1l8.6-.5L156.4,6l4.2-1.4,1.7,4.8,9.8-.6.2,4.5-23.1,1.3Z"/><path d="M184.7,43.5l-2.4-2.2L181.3,7l2.3-2.4,32.2-.1V9l-29.9.1.8,29.7,31.6-2.7.4,4.5Zm20.3-20,10,7.2-2.6,3.7-10.9-7.8-10.2,8.8L188.4,32l9.4-8.2L188.3,17l2.6-3.6,10.3,7.4,11-9.6,2.9,3.5Z"/></g></g></g></svg>