<svg xmlns="http://www.w3.org/2000/svg" viewBox="0 0 256 47.5"><defs><style>.cls-1{fill:none;}.cls-2{isolation:isolate;}</style></defs><title>洪楼</title><g id="图层_2" data-name="图层 2"><g id="图层_1-2" data-name="图层 1"><rect class="cls-1" width="256" height="47.5"/><g class="cls-2"><path d="M13.1,39.9,21,26.6l3.9,2.3L17,42.2Zm.5-21.2,2.9-3.6,7.2,5.8-2.9,3.6ZM15,9l3.1-3.4,6.3,5.9-3.1,3.4ZM26,41.1l5.1-10.9-5.4.5-.4-4.5,6.5-.6-1.1-7.9-4.8-.2.1-4.6,4.1.1-1-7.5,4.5-.6,1.2,8.3,7,.2.2-7,4.6.1-.2,7,4.5.1-.1,4.6-4.5-.1-.2,6,4.5-.4.5,4.6L36.7,29.7,30.5,43Zm10.4-16,5-.5.2-6.7-6.2-.1Zm3.5,11.2,2.9-3.5,6.8,5.7L46.7,42Z"/><path d="M59.9,32.3,79.5,25l-2.3-1.7L64.6,27.8l-1.5-4.3L78,18.2l-6.5-.7.4-4.5,17,1.4.6,4.4-7.1,2.6,2,1.5.9,1.5,1.3,16-1.8,2.4-9.2,1.7-.9-4.4,7.2-1.4-.8-9.6L61.5,36.5ZM94,17.7l.7-4.8-28.1-.5-1,5.5-4.5-.8,1.3-7.4,2.3-1.9,14.7.3L78.1,5.4l4.1-2,2.3,4.8,12.8.2L99.5,11l-1,7.4ZM63.9,38.3l14.7-6.4,1.7,4.2L65.6,42.4Zm22.3-9.9.5-3.3,7.5-5.2,2.6,3.7-5.6,3.9,8.7,11.1-3.6,2.8Z"/><path d="M123.8,27.2l-3.9-3.3-1.1,20.3-4.6-.2,1-18.8-4.3,11.1-4.3-1.7L113,18.4l-4.1.3-.3-4.6,7.3-.4.5-9.6,4.6.3-.5,9.1,3.5-.2.3,4.5-4.1.3v.4l6.5,5.5ZM141.3,37l6.8,2-1.3,4.2-11.7-3.5-8.8,3.9-1.9-4,4.2-1.9-1.4-.4-1.4-3.1,1.1-2.4h-3l.1-4.6h5l1.6-3.5,4.1,1.8-.8,1.7,15.6.1v4.6H143l1.6,3.5Zm1.8-22,5.7,5.3-3.1,3.3L139,17.4l.3,7.5-4.6.2-.3-7.3-6.6,6.4-3.2-3.3,5.3-5.1-4.7.2-.2-4.6,4.1-.2-3.4-3.8,3.4-3,4.6,5.1L132,11l2.1-.1-.2-6.1,4.5-.1.2,6h.5L144,3.8l3.6,2.6-2.8,3.9,3.1-.2.2,4.6ZM131.7,31.9l-.8,1.9,3.8,1.2,6.5-2.9Z"/><path d="M155.9,13.7l7.6-.8-.1-6.5,4.6-.1v6.2l3.7-.4.5,4.5-4.2.5.1,5.2,5.7,8.4-3.7,2.6-1.9-2.7.2,13.1h-4.5l-.3-21.3-3.9,20.1-4.5-.8,4.6-23.6-3.5.4Zm35.4,10.7-4.7,5.7,9.3,10.4-3.4,3-8.8-9.9-8,9.6-3.5-2.9,8.5-10.2-3-3.4-1,1.8-4-2.1,6-11.5,4,2-2.8,5.4,3.7,4.2,4.5-5.3L185.8,19l3.1-3.3,7.9,7.5-3.1,3.2ZM173,10.1l8.6-.5L180.4,6l4.2-1.4,1.7,4.8,9.8-.6.2,4.5-23.1,1.3Z"/><path d="M208.7,43.5l-2.4-2.2L205.3,7l2.3-2.4,32.2-.1V9l-29.9.1.8,29.7,31.6-2.7.4,4.5Zm20.3-20,10,7.2-2.6,3.7-10.9-7.8-10.2,8.8L212.4,32l9.4-8.2L212.3,17l2.6-3.6,10.3,7.4,11-9.6,2.9,3.5Z"/></g></g></g></svg>